<svg xmlns="http://www.w3.org/2000/svg" width="123.1" height="47.1" viewBox="0 0 123.1 47.1"><path fill-rule="evenodd" clip-rule="evenodd" fill="#FFF" d="M94.8 38.1l.1-.4.2-.4.2-.4.2-.4.3-.3.2-.2.2-.1.2-.1.3-.1.3-.1h.6l.3.1.2.1.2.1.2.1.2.2.3.4.2.4.2.4v.4l.1.4h-4.7zm2.5-3.6h-.5l-.4.1-.4.1-.4.1-.3.2-.3.3-.3.3-.3.3-.2.3-.2.3-.2.4-.2.4-.1.4-.1.4v.5l-.1.5.1.5v.5l.1.4.1.4.2.4.2.3.2.3.2.3.3.2.3.2.3.2.4.1.4.1.4.1.4.1h1.3l.7-.1.6-.2.6-.2-.3-1.1-.2.4h-.5l-.6.1H97.2l-.6-.1-.5-.2-.2-.1-.2-.2-.2-.2-.2-.2-.2-.2-.1-.3v-.3l-.1-.3v-.4l-.1-.4h5.9v-.3l.1-.4-.1-.7-.1-.7-.2-.7-.2-.3-.2-.3-.2-.3-.2-.3-.3-.2H99l-.4-.2-.4-.2-.5-.1h-.4zm-6.7 5.1v.4l-.1.3-.1.4-.3.3-.2.3-.3.3-.3.2-.3.2-.4.1H88l-.3-.1h-.3l-.2-.1-.2-.1-.2-.2-.2-.2-.1-.2-.3-.5-.2-.5-.2-.6V38.3l.2-.6.2-.6.3-.5.1-.2.2-.2.2-.2.3-.1.2-.1.3-.1.2-.1h.3l.4.1.4.1.3.1.3.2.3.3.2.3.2.3.1.4.1.3V39.6zm1.4-8.4h-1.5v4.6h-.1l-.1-.3-.2-.2-.2-.2-.3-.2-.3-.1-.4-.2-.5-.1h-.8l-.4.1-.4.1-.3.1-.3.2-.3.2-.3.2-.3.3-.2.3-.2.3-.2.4-.2.4-.1.4-.1.5-.1.5v1.1l.1.4.1.5.1.4.2.4.2.3.2.3.2.3.3.2.3.2.3.2.3.1.3.1.4.1.4.1h.9l.5-.1.4-.2.4-.2.3-.2.3-.3.3-.3.2-.4.1 1.5h1.3l-.1-1V31.2zm-11 12h1.5v-8.5H81v8.5zm.8-12l-.2.1h-.2l-.2.1-.1.1-.2.1-.1.2v.8l.1.2.1.1.2.2.2.1h.8l.1-.1.1-.2.1-.1.1-.2.1-.2V32l-.1-.2-.1-.2-.1-.1-.1-.1-.1-.1H82l-.2-.1zm-4.9 7l-1-.4-.3-.2-.3-.2-.1-.1-.2-.1v-.5l.1-.3.1-.2.2-.2.2-.1.3-.2h.3l.4-.1.6.1.5.1.5.1.4.2.4-1-.5-.2-.5-.2-.6-.1-.7-.1-.8.1h-.3l-.3.1-.3.1-.3.2-.2.1-.2.2-.1.2-.2.2-.2.4-.1.5-.2.4.1.4.1.3.2.3.2.3.3.3.4.3.5.2.6.2 1 .4.3.2.3.2.2.2.1.2v.2l.1.2-.1.3-.1.2-.1.2-.2.2-.3.2-.3.1-.4.1H76l-.6-.1-.6-.1-.6-.2-.5-.2-.4 1.1.6.2.6.2.7.1h1.5l.7-.2.3-.1.3.1.2-.2.3-.2.2-.1.2-.2.1-.2.2-.2.1-.2v-.3l.1-.5v-.5l-.2-.4-.2-.4-.3-.3-.3-.3-.4-.3-.5-.3-.6-.2zm-9.6-1.8l-.2-1.7h-1.4l.1 1.3V43.2h1.6v-4.9l.1-.4.1-.4.2-.4.2-.3.2-.3.3-.2.4-.2.4-.1h1.1v-1.4l-.2-.1h-.3l-.4.1-.4.1-.4.1-.4.2-.3.3-.3.3-.2.4-.2.4zm-3.8-1.7H62V40.3l-.1.4-.2.3-.1.2-.2.3-.2.2-.3.2-.3.1-.4.1-.4.1-.5-.1-.3-.1-.3-.3-.2-.3-.3-.4-.2-.4v-5.9h-1.5v5.5l.1.5.1.4.1.4.1.3.2.3.2.3.2.2.2.2.2.2.3.1.3.2.5.1h1.1l.5-.1.4-.2.4-.2.3-.3.3-.2.2-.3.2-.3.1 1.4h1.3v-1.1l-.1-1.3v-6.1zm-12.6 7.6h-.6l-.2-.1-.2-.2-.2-.2-.2-.2-.2-.2-.2-.2-.3-.5-.2-.6-.1-.6-.1-.5.1-.6.1-.6.2-.6.3-.5.2-.2.2-.2.2-.2.2-.2.2-.1.3-.1.3-.1h.6l.3.1.3.1.3.1.2.2.2.2.2.2.2.2.3.5.2.6.1.6V39.7l-.2.7-.4.4-.3.5-.2.2-.2.2-.2.2-.1.1-.3.1-.3.1h-.5zm.1-7.8h-.4l-.4.1-.4.1-.4.1-.4.2-.3.2-.3.2-.4.3-.2.3-.3.3-.2.4-.2.4-.1.5-.1.4v.5l-.1.5.1.5v.5l.1.4.2.4.1.4.3.3.2.3.2.3.3.3.3.2.3.2.4.2.4.1.4.1.4.1H51.7l.4-.1.4-.2.4-.1.3-.2.3-.2.3-.2.2-.3.3-.3.2-.4.2-.4.2-.5.1-.5.1-.6v-1.1l-.1-.5-.1-.4-.1-.4-.2-.4-.2-.4-.2-.1-.2-.3-.3-.3-.3-.2-.4-.2-.4-.1-.4-.1-.4-.1-.4-.1H51zm-7.7 5.2l-.6 1.7h-.1l-.2-.8-.3-.9-1.8-5h-1.6l3.1 7.8.1.2.1.1-.1.2-.1.2-.3.6-.3.5-.4.4-.3.3-.3.3-.4.2-.3.2-.3.1.4 1.3.3-.1.5-.2.5-.3.5-.4.4-.4.4-.5.4-.5.3-.6.3-.7.4-.8.8-1.9 2.2-6.1H45l-1.7 5.1zm-11.2-7.2l-1.5.5v1.7h-1.3v1.2h1.3V41.3l.1.6.2.5.3.4.3.3.4.2.5.1h1.4l.6-.2-.3-1.2-.4.1-.4.1-.3-.1h-.2l-.2-.1-.2-.2-.1-.2-.1-.3-.1-.3v-5.1h2.2v-1.2h-2.2v-2.2zm-5.6 7.9v.2l-.1.2-.1.3-.2.2-.1.3-.2.2-.3.2-.3.2-.4.1h-.7l-.2-.1-.3-.2-.2-.2-.2-.2-.1-.3-.1-.2v-.7l.1-.3.1-.2.1-.2.2-.2.2-.2.2-.2.3-.1.6-.2.6-.1h1.2v1.7zM28 38v-.6l-.1-.6-.1-.3-.1-.3-.2-.3-.2-.3-.2-.2-.2-.2-.2-.2-.3-.2-.4-.1-.4-.1-.4-.1h-.5l-.7.1-.7.1-.7.3-.6.3.4 1 .5-.3.6-.2.6-.1.6-.1.3.1h.3l.2.1.2.1.2.1.2.1.2.3.2.3.1.3.1.3v.5l-1.2.1H25l-.7.1-.5.2-.4.1-.4.2-.3.2-.3.2-.2.2-.2.2-.2.3-.2.3-.1.3-.1.4v.9l.1.4.2.4.3.4.3.3.5.3.2.1.3.1h1.2l.4-.1.4-.1.3-.2.3-.2.3-.2.2-.2.2-.2.2 1.1h1.4l-.1-1-.1-1.3V38zm66.4-24l.2-.5.2-.5.2-.5.3-.4.3-.4.3-.4.3-.3.4-.3.4-.3.4-.2.4-.2.4-.2.5-.1.5-.1.5-.1h1.1l.6.1.6.2.6.2.5.2.5.3.4.3.4.3.4.3.3.4.3.4.2.4.2.4.1.4.1.3v.3H94.4zm-51.6 8.8l-.6-.1-.6-.1-.6-.1-.6-.3-.6-.2-.5-.3-.5-.4-.5-.3-.4-.4-.4-.6-.3-.5-.2-.5-.2-.6-.2-.6-.1-.7V15.8l.1-.7.2-.6.2-.6.3-.6.3-.5.4-.5.4-.4.4-.4.5-.4.6-.3.5-.2.6-.2.6-.1.6-.1.6-.1.7.1.6.1.6.1.6.2.6.2.5.3.5.4.4.4.4.5.4.5.3.6.3.5.2.6.2.6.1.6V17.1l-.1.6-.2.6-.4.7-.3.5-.3.6-.3.5-.4.4-.4.4-.5.4-.5.3-.6.2-.6.3-.6.1-.6.1h-.6zm-31.6 0l-.6-.1-.6-.1-.6-.1-.6-.3-.5-.2-.5-.3-.5-.4-.5-.3-.4-.4L6 20l-.3-.5-.2-.5-.2-.6-.2-.6-.1-.6V15.9l.1-.7.2-.6.2-.6.3-.6.2-.4.4-.5.4-.4.4-.4.5-.4.6-.3.5-.2.6-.2.6-.1.6-.1.6-.1.6.1.7.1.6.1.6.2.6.2.5.3.5.4.4.4.4.5.4.5.3.6.3.5.2.6.2.6.1.6V17.3l-.1.6-.2.6-.4.5-.3.5-.3.6-.3.4-.4.5-.4.4-.5.4-.5.3-.6.2-.6.3-.6.1-.7.1h-.5zM122.5 5.1h-1.3l-1.2.2-1.1.2-1.1.3-1 .4-.9.5-.8.5-.7.6-.7.7-.6.7-.5.8-.4.8-.3.8-.2.9-.2.9v1l-.2-1-.3-1-.4-.9-.5-.9-.6-.8-.5-.9-.7-.7-.7-.7-.8-.6-.8-.5-1-.4-.9-.4-1-.3-1-.2-1-.1-1-.1-1 .1-1 .1-1 .2-.9.3-.8.4-.9.4-.8.5-.8.6-.7.6-.7.8-.5.7-.6.8-.5.9-.4.9-.3 1-.3 1v-.9l-.2-.9-.2-.8-.3-.9-.2-.8-.5-.7-.5-.8-.5-.7-.6-.6-.7-.6-.7-.5-.8-.4-.8-.3-.9-.1-.9-.2H79.4l-.8.1-.7.2-.7.3-.7.3-.7.4-.6.5-.6.5V0h-5.3v17l-.1.9v.6l-.2.5-.2.6-.2.5-.2.5-.3.4-.3.4-.3.3-.3.3-.4.3-.4.2-.4.1-.4.2-.5.1h-.4l-.5.1-.5-.1h-.5l-.5-.1-.5-.1-.2-.2-.4-.2-.4-.2-.3-.2-.3-.3-.3-.4-.3-.5-.2-.5-.2-.5-.1-.6-.1-.6-.1-.7v-7.5h8.3v-5h-8.3V0h-5.4v14.3l-.2-1-.3-.9-.4-.9-.5-.8-.5-.9-.6-.8-.6-.8-.8-.6-.7-.6-.8-.6-.9-.5-.9-.4-1-.3-1-.2-1-.1-1-.1H42l-.7.1-.6.1-.6.1-.7.2-.6.2-.6.2-.6.3-.5.3-.6.3-.5.4-.5.4-.5.4-.5.5-.5.4-.4.5V5.1h-1.9l-1.2.2-1.1.2-1 .3-1 .4-.9.4-.5.5-.7.6-.6.7-.6.6-.5.8-.4.8-.4.8-.2.9-.2.9-.1.9-.2-.9-.3-.9-.4-.9-.4-.9-.5-.8L20 9l-.7-.7-.6-.6-.7-.6-.7-.5-.8-.5-.8-.4-.9-.3-.9-.2L13 5h-2l-1.1.3-1 .2-.8.3-.8.4-.7.5-.8.6-.6.6V0H0v16.5l.1 1.2.1 1.1.3 1.2.4 1 .4 1 .6.9.6.9.7.8.7.8.4.3.4.3.5.3.5.3.5.3.5.2.5.2.6.2.6.1.5.1.6.1.5.2h2.2l1.1-.2 1-.2 1-.3.9-.3.8-.5.8-.5.7-.6.7-.6.6-.7.6-.7.5-.8.5-.8.4-.9.3-.9.2-1v8.5h5.3v-12l.1-.6.1-.6.1-.5.2-.5.2-.4.3-.4.3-.4.3-.3.4-.3.4-.3.5-.2.5-.2.5-.2.6-.1.6-.1h.6l-.5.6-.4.7-.3.8-.2.8-.3.7-.2.8-.1.8V17l.1.6v.6l.1.6.2.6.1.6.2.6.2.5.5 1 .6 1 .6.9.7.8.8.7.9.7 1 .6 1 .5.5.2.5.2.6.2.6.1.5.1.6.1.6.1h.6l1-.1 1-.1 1-.2 1-.3.9-.4.9-.5.8-.5.7-.6.7-.7.6-.8.6-.7.5-.8.5-.8.4-.9.3-.9.2-1 .1 1 .1 1 .2.9.4.9.4.8.5.7.5.7.7.7.7.6.7.5.8.2.8.4.9.3.9.2 1 .1h1.8l.8-.1.7-.2.7-.3.7-.4.6-.4.6-.5.6-.6v1.9h5.3V15.9l.1-.6v-.7l.1-.7.1-.6.2-.5.2-.5.2-.5.3-.4.3-.3.4-.3.3-.2.4-.2.4-.2.4-.2.4-.1H79.9l.4.1.4.2.4.2.3.2.6.4.3.3.3.3.2.4.2.5.2.5.2.5.1.6.1.6v12.8l5.4.1V19l.3 1 .3 1 .4.9.5.9.5.8.6.8.7.7.7.7.8.6.8.5.9.5.9.3.9.3 1 .2 1 .1h2.2l1.1-.2 1-.2.9-.3.9-.4.8-.4.7-.5.7-.6.6-.6.6-.7.5-.7.5-.8.4-.7.3-.8.3-.8.2-.8h-5.2l-.2.6-.4.6-.2.3-.3.3-.3.3-.3.3-.4.3-.4.3-.4.2-.5.2-.5.2-.5.1-.5.1h-1.1l-.6-.1-.5-.1-.5-.2-.6-.2-.5-.2-.5-.3-.4-.3-.4-.4-.4-.4-.3-.4-.1-.6-.3-.4-.2-.5-.2-.6-.2-.6h17.3v9.2h5.3v-12l.1-.6.1-.6.1-.6.2-.5.2-.5.3-.4.3-.4.4-.3.4-.3.4-.3.5-.2.5-.2.5-.2.6-.1.6-.1h1.2V5.1h-.6z"/></svg>